<svg width="48" height="48" viewBox="0 0 48 48" fill="none" xmlns="http://www.w3.org/2000/svg">
<rect width="48" height="48" rx="24" fill="#008080"/>
<g clip-path="url(#clip0_92_5718)">
<path d="M31.1496 32.2407L32.6699 30.9389L30.3406 28.1122L28.8202 29.414L31.1496 32.2407Z" fill="white"/>
<path d="M37.3342 38.1032C37.5143 37.948 37.6618 37.7574 37.7679 37.5427C37.874 37.328 37.9366 37.0937 37.9518 36.8538C37.967 36.6139 37.9345 36.3733 37.8563 36.1465C37.7782 35.9197 37.6559 35.7113 37.4969 35.5338L32.3194 30.0554L30.3491 31.7399L34.816 37.8298C34.9606 38.0207 35.1416 38.1798 35.3482 38.2975C35.5547 38.4152 35.7825 38.489 36.0178 38.5146C36.2531 38.5401 36.4911 38.5168 36.7173 38.4461C36.9435 38.3755 37.1534 38.2588 37.3342 38.1032Z" fill="white"/>
<path d="M33.9783 23.3668C33.6391 25.7192 32.5187 27.8818 30.8041 29.4938C29.0894 31.1058 26.8843 32.0695 24.5567 32.2243C22.2291 32.3791 19.9198 31.7154 18.0143 30.3442C16.1087 28.9729 14.7222 26.977 14.0861 24.6894C13.45 22.4019 13.6028 19.9612 14.5189 17.7747C15.4351 15.5881 17.0593 13.788 19.1203 12.6747C21.1814 11.5614 23.5547 11.2023 25.8441 11.6574C28.1336 12.1125 30.2007 13.3541 31.7004 15.1752C32.6281 16.298 33.3109 17.609 33.7036 19.0213C34.0963 20.4336 34.19 21.9148 33.9783 23.3668ZM15.8871 20.6587C15.8642 20.8194 15.8464 20.9827 15.8324 21.1459C15.6554 23.2907 16.3132 25.4204 17.6637 27.0749C19.0142 28.7295 20.9491 29.776 23.0503 29.9886C25.1515 30.2011 27.2504 29.5625 28.8936 28.2108C30.5368 26.8591 31.5924 24.9027 31.8323 22.7643C32.0722 20.6259 31.4772 18.4771 30.1759 16.7821C28.8745 15.0871 26.9712 13.982 24.8772 13.7055C22.7831 13.429 20.6664 14.0032 18.9843 15.3043C17.3022 16.6053 16.1897 18.5286 15.8871 20.6587Z" fill="white"/>
<path d="M19.8022 20.6833V28.1714C20.8585 28.7965 22.0414 29.1662 23.2598 29.252C23.3793 29.2611 23.4988 29.2676 23.617 29.2715V20.6833H19.8022Z" fill="white" fill-opacity="0.68"/>
<path d="M24.2578 18.0686V29.2676C25.6042 29.2172 26.9162 28.82 28.0713 28.1131V18.0686H24.2578Z" fill="white" fill-opacity="0.68"/>
<path d="M28.5708 27.5391C30.0463 26.2725 30.9685 24.4611 31.1354 22.5022C31.3022 20.5434 30.6999 18.597 29.4607 17.0903C29.1828 16.7539 28.8766 16.443 28.5454 16.1612V27.5637L28.5708 27.5391Z" fill="white" fill-opacity="0.68"/>
<path d="M16.6638 22.706C16.8224 24.1519 17.3974 25.5175 18.3163 26.6308C18.5932 26.9655 18.8982 27.2751 19.2278 27.5559V22.706H16.6638Z" fill="white" fill-opacity="0.68"/>
<path d="M15.5057 29.0434C15.4383 28.9618 15.3786 28.8776 15.3099 28.7947L14.2803 29.8092L11.2765 26.7124L6.00244 32.0249L7.40835 33.4748L11.26 29.5876L14.2485 32.6676L16.6866 30.264C16.2624 29.889 15.8676 29.4809 15.5057 29.0434Z" fill="white"/>
<path d="M38.3437 10.8358L35.209 11.6715L36.8285 13.343L33.573 16.6342C33.9116 17.2863 34.1854 17.9712 34.3904 18.6788L38.2344 14.7916L39.7598 16.3672L40.6165 13.1836L41.472 9.9987L38.3437 10.8358Z" fill="white"/>
</g>
<defs>
<clipPath id="clip0_92_5718">
<rect width="35.4783" height="28.5217" fill="white" transform="translate(6 10)"/>
</clipPath>
</defs>
</svg>
