<svg width="28" height="28" viewBox="0 0 28 28" fill="none" xmlns="http://www.w3.org/2000/svg">
<path d="M12.25 14.5162L9.98375 12.25L8.75 13.4837L12.25 16.9837L19.25 9.98375L18.0163 8.75L12.25 14.5162Z" fill="#10B981"/>
<path d="M14 26.25L8.59601 23.3686C7.0553 22.5492 5.76687 21.3256 4.86906 19.8292C3.97125 18.3328 3.49796 16.6201 3.50001 14.875V3.5C3.50001 3.03587 3.68438 2.59075 4.01257 2.26256C4.34076 1.93437 4.78588 1.75 5.25001 1.75H22.75C23.2141 1.75 23.6593 1.93437 23.9874 2.26256C24.3156 2.59075 24.5 3.03587 24.5 3.5V14.875C24.5021 16.6201 24.0288 18.3328 23.131 19.8292C22.2331 21.3256 20.9447 22.5492 19.404 23.3686L14 26.25ZM5.25001 3.5V14.875C5.24903 16.3027 5.63665 17.7038 6.3713 18.928C7.10595 20.1522 8.15994 21.1534 9.42026 21.8242L14 24.2664L18.5798 21.8251C19.8402 21.1542 20.8943 20.1529 21.6289 18.9285C22.3636 17.7041 22.7511 16.3029 22.75 14.875V3.5H5.25001Z" fill="#10B981"/>
</svg>
