<svg width="28" height="28" viewBox="0 0 28 28" fill="none" xmlns="http://www.w3.org/2000/svg">
<path d="M14.0001 18.6667H14.0094M14.0001 9.33333V15.1667M3.76839 9.23183L9.22839 3.76833C9.40339 3.59333 9.63672 3.5 9.89339 3.5H18.1184C18.3634 3.5 18.6084 3.59333 18.7834 3.76833L24.2317 9.22017C24.4067 9.39517 24.5001 9.6285 24.5001 9.88517V18.1148C24.5001 18.3598 24.4067 18.6048 24.2317 18.7798L18.7834 24.2317C18.6084 24.4067 18.3751 24.5 18.1184 24.5H9.88172C9.75866 24.5013 9.63655 24.4783 9.52242 24.4322C9.40829 24.3862 9.3044 24.318 9.21672 24.2317L3.76839 18.7798C3.68203 18.6922 3.61386 18.5883 3.56781 18.4741C3.52175 18.36 3.49873 18.2379 3.50005 18.1148V9.88517C3.50005 9.64017 3.59339 9.39517 3.76839 9.22017V9.23183Z" stroke="#EF4444" stroke-width="1.5" stroke-miterlimit="10" stroke-linecap="round" stroke-linejoin="round"/>
</svg>
