<svg width="28" height="28" viewBox="0 0 28 28" fill="none" xmlns="http://www.w3.org/2000/svg">
<path d="M8.16634 21V14C8.16634 12.4529 8.78092 10.9692 9.87489 9.87522C10.9688 8.78126 12.4526 8.16668 13.9997 8.16668C15.5468 8.16668 17.0305 8.78126 18.1245 9.87522C19.2184 10.9692 19.833 12.4529 19.833 14V21M8.16634 21H19.833M8.16634 21C7.5475 21 6.95401 21.2458 6.51643 21.6834C6.07884 22.121 5.83301 22.7145 5.83301 23.3333V24.5C5.83301 24.8094 5.95592 25.1062 6.17472 25.325C6.39351 25.5438 6.69026 25.6667 6.99967 25.6667H20.9997C21.3091 25.6667 21.6058 25.5438 21.8246 25.325C22.0434 25.1062 22.1663 24.8094 22.1663 24.5V23.3333C22.1663 22.7145 21.9205 22.121 21.4829 21.6834C21.0453 21.2458 20.4518 21 19.833 21M24.4997 14H25.6663M21.583 5.25001L20.9997 5.83334M2.33301 14H3.49967M13.9997 2.33334V3.50001M5.75012 5.75046L6.57496 6.57529M13.9997 14V21" stroke="#FF7F50" stroke-width="1.5" stroke-linecap="round" stroke-linejoin="round"/>
</svg>
