<svg width="48" height="40" viewBox="0 0 48 40" fill="none" xmlns="http://www.w3.org/2000/svg">
<path d="M0 8C0 3.58172 3.58172 0 8 0H40C44.4183 0 48 3.58172 48 8V32C48 36.4183 44.4183 40 40 40H8C3.58172 40 0 36.4183 0 32V8Z" fill="#008080"/>
<path d="M26 28.4V22.6C26 22.2686 26.2686 22 26.6 22H32.4C32.7314 22 33 22.2686 33 22.6V28.4C33 28.7314 32.7314 29 32.4 29H26.6C26.2686 29 26 28.7314 26 28.4Z" stroke="white" stroke-width="1.5"/>
<path d="M15 28.4V22.6C15 22.2686 15.2686 22 15.6 22H21.4C21.7314 22 22 22.2686 22 22.6V28.4C22 28.7314 21.7314 29 21.4 29H15.6C15.2686 29 15 28.7314 15 28.4Z" stroke="white" stroke-width="1.5"/>
<path d="M26 17.4V11.6C26 11.2686 26.2686 11 26.6 11H32.4C32.7314 11 33 11.2686 33 11.6V17.4C33 17.7314 32.7314 18 32.4 18H26.6C26.2686 18 26 17.7314 26 17.4Z" stroke="white" stroke-width="1.5"/>
<path d="M15 17.4V11.6C15 11.2686 15.2686 11 15.6 11H21.4C21.7314 11 22 11.2686 22 11.6V17.4C22 17.7314 21.7314 18 21.4 18H15.6C15.2686 18 15 17.7314 15 17.4Z" stroke="white" stroke-width="1.5"/>
</svg>
