<svg width="114" height="83" viewBox="0 0 114 83" fill="none" xmlns="http://www.w3.org/2000/svg">
<path fill-rule="evenodd" clip-rule="evenodd" d="M35.1504 71.1353C37.6421 71.1353 39.6621 73.1552 39.6621 75.647C39.662 78.1386 37.6421 80.1587 35.1504 80.1587C32.6589 80.1585 30.6388 78.1385 30.6387 75.647C30.6387 73.1553 32.6588 71.1354 35.1504 71.1353ZM52.8115 60.0386C55.4452 60.0386 57.5801 62.1735 57.5801 64.8071C57.5801 67.4408 55.4452 69.5757 52.8115 69.5757C50.1781 69.5755 48.043 67.4406 48.043 64.8071C48.043 62.1736 50.1781 60.0388 52.8115 60.0386ZM34.5752 48.5767C38.5255 48.5767 41.7283 51.7787 41.7285 55.729C41.7285 59.6795 38.5257 62.8823 34.5752 62.8823C30.6249 62.8821 27.4229 59.6793 27.4229 55.729C27.423 51.7789 30.6251 48.5769 34.5752 48.5767ZM71.3584 52.0903C73.5531 52.0903 75.333 53.8702 75.333 56.0649C75.3328 58.2595 73.553 60.0386 71.3584 60.0386C69.1639 60.0384 67.3849 58.2594 67.3848 56.0649C67.3848 53.8703 69.1638 52.0905 71.3584 52.0903ZM16.7178 47.3218C19.3513 47.3218 21.4861 49.4569 21.4863 52.0903C21.4863 54.724 19.3514 56.8599 16.7178 56.8599C14.0843 56.8597 11.9492 54.7239 11.9492 52.0903C11.9495 49.457 14.0844 47.322 16.7178 47.3218ZM84.7334 44.1431C86.4889 44.1432 87.9119 45.5663 87.9121 47.3218C87.9121 49.0775 86.4891 50.5014 84.7334 50.5015C82.9776 50.5015 81.5537 49.0775 81.5537 47.3218C81.5539 45.5662 82.9778 44.1431 84.7334 44.1431ZM101.15 33.0161C103.784 33.0162 105.919 35.1512 105.919 37.7847C105.919 40.4182 103.784 42.5531 101.15 42.5532C98.5167 42.5532 96.3818 40.4183 96.3818 37.7847C96.382 35.1511 98.5168 33.0161 101.15 33.0161ZM12.8496 31.4263C15.4833 31.4263 17.6182 33.5622 17.6182 36.1958C17.6179 38.8292 15.4831 40.9644 12.8496 40.9644C10.2162 40.9642 8.0813 38.8292 8.08105 36.1958C8.08105 33.5622 10.2161 31.4264 12.8496 31.4263ZM92.7676 20.3003C95.4012 20.3003 97.5361 22.4352 97.5361 25.0688C97.536 27.7024 95.4011 29.8374 92.7676 29.8374C90.1341 29.8373 87.9992 27.7023 87.999 25.0688C87.999 22.4353 90.134 20.3004 92.7676 20.3003ZM61.0332 20.3003C63.2277 20.3005 65.0068 22.0793 65.0068 24.2739C65.0068 26.4684 63.2277 28.2474 61.0332 28.2476C58.8386 28.2476 57.0587 26.4686 57.0586 24.2739C57.0586 22.0792 58.8385 20.3003 61.0332 20.3003ZM22.3623 17.1206C24.5568 17.1206 26.3357 18.8998 26.3359 21.0942C26.3359 23.2889 24.557 25.0688 22.3623 25.0688C20.1676 25.0688 18.3887 23.2889 18.3887 21.0942C18.3889 18.8997 20.1678 17.1206 22.3623 17.1206ZM77.1084 5.99365C81.0588 5.99368 84.2617 9.19653 84.2617 13.147C84.2617 17.0974 81.0588 20.3003 77.1084 20.3003C73.1579 20.3003 69.9551 17.0974 69.9551 13.147C69.9551 9.19651 73.1579 5.99365 77.1084 5.99365ZM54.4014 2.81494C57.9129 2.81494 60.7598 5.66182 60.7598 9.17334C60.7596 12.6848 57.9128 15.5317 54.4014 15.5317C50.89 15.5317 48.0431 12.6847 48.043 9.17334C48.043 5.66185 50.8899 2.815 54.4014 2.81494ZM37.041 7.5835C38.7965 7.58368 40.2195 9.00677 40.2197 10.7622C40.2197 12.5179 38.7966 13.9417 37.041 13.9419C35.2853 13.9419 33.8613 12.518 33.8613 10.7622C33.8616 9.00665 35.2854 7.5835 37.041 7.5835Z" fill="url(#paint0_linear_3007_5771)"/>
<ellipse cx="54" cy="43.6577" rx="10" ry="10.5" fill="#49F0BC"/>
<ellipse cx="76.5" cy="33.1577" rx="6.5" ry="6" fill="#49F0BC"/>
<ellipse cx="41.5" cy="26.1577" rx="7.5" ry="7" fill="#49F0BC"/>
<circle cx="27" cy="39.1577" r="5" fill="#49F0BC"/>
<rect x="54.4832" y="41.3784" width="23.2031" height="3.22265" transform="rotate(-24.3301 54.4832 41.3784)" fill="#49F0BC"/>
<rect x="52.1301" y="42.3433" width="15.7596" height="3.22265" transform="rotate(-125.169 52.1301 42.3433)" fill="#49F0BC"/>
<rect x="41.9178" y="27.6206" width="19.6383" height="3.22265" transform="rotate(136.913 41.9178 27.6206)" fill="#49F0BC"/>
<defs>
<linearGradient id="paint0_linear_3007_5771" x1="69.7189" y1="2.81494" x2="31.6465" y2="80.5196" gradientUnits="userSpaceOnUse">
<stop stop-color="#00CFCF"/>
<stop offset="1" stop-color="#006969"/>
</linearGradient>
</defs>
</svg>
