<svg width="69" height="69" viewBox="0 0 69 69" fill="none" xmlns="http://www.w3.org/2000/svg">
  <circle cx="34.5" cy="34.5" r="34.5" fill="#008080" />
  <g clip-path="url(#clip0_1_2)">
    <path d="M45.1524 45.9709L47.338 44.0996L43.9895 40.0363L41.804 41.9076L45.1524 45.9709Z" fill="white" />
    <path
      d="M54.043 54.3984C54.3019 54.1753 54.5139 53.9012 54.6665 53.5926C54.819 53.284 54.9089 52.9472 54.9308 52.6023C54.9526 52.2575 54.9059 51.9117 54.7936 51.5856C54.6812 51.2596 54.5055 50.96 54.2769 50.7048L46.8343 42.8297L44.002 45.2511L50.4231 54.0054C50.631 54.2798 50.8912 54.5085 51.1881 54.6777C51.485 54.8468 51.8125 54.953 52.1507 54.9897C52.4889 55.0264 52.831 54.993 53.1562 54.8914C53.4814 54.7897 53.783 54.622 54.043 54.3984Z"
      fill="white" />
    <path
      d="M49.2189 33.2148C48.7313 36.5963 47.1208 39.7051 44.656 42.0223C42.1912 44.3395 39.0213 45.725 35.6753 45.9474C32.3294 46.1699 29.0098 45.2159 26.2706 43.2447C23.5314 41.2735 21.5383 38.4044 20.6238 35.1161C19.7094 31.8278 19.929 28.3192 21.2461 25.1761C22.5631 22.0329 24.8978 19.4452 27.8606 17.8449C30.8234 16.2445 34.235 15.7284 37.526 16.3825C40.8171 17.0367 43.7885 18.8216 45.9444 21.4393C47.2779 23.0533 48.2595 24.9379 48.824 26.9681C49.3886 28.9982 49.5232 31.1276 49.2189 33.2148ZM23.2128 29.3219C23.1799 29.5529 23.1543 29.7876 23.1342 30.0223C22.8797 33.1054 23.8253 36.1668 25.7667 38.5452C27.7081 40.9236 30.4894 42.428 33.5099 42.7336C36.5304 43.0391 39.5476 42.1211 41.9097 40.178C44.2718 38.2349 45.7892 35.4226 46.134 32.3486C46.4789 29.2747 45.6236 26.1858 43.7529 23.7492C41.8822 21.3127 39.1462 19.7241 36.136 19.3266C33.1258 18.9291 30.0831 19.7546 27.665 21.6249C25.2469 23.4951 23.6477 26.2598 23.2128 29.3219Z"
      fill="white" />
    <path
      d="M28.8408 29.3573V40.1214C30.3592 41.02 32.0596 41.5514 33.8111 41.6748C33.9829 41.6878 34.1546 41.6972 34.3246 41.7027V29.3573H28.8408Z"
      fill="white" fill-opacity="0.68" />
    <path d="M35.2455 25.5985V41.6972C37.181 41.6248 39.067 41.0538 40.7275 40.0376V25.5985H35.2455Z" fill="white"
      fill-opacity="0.68" />
    <path
      d="M41.4456 39.2124C43.5665 37.3917 44.8923 34.7878 45.1321 31.9719C45.3719 29.1561 44.5061 26.3582 42.7247 24.1922C42.3253 23.7087 41.8851 23.2618 41.4091 22.8568V39.2478L41.4456 39.2124Z"
      fill="white" fill-opacity="0.68" />
    <path
      d="M24.3292 32.2649C24.5572 34.3433 25.3838 36.3064 26.7047 37.9067C27.1028 38.3879 27.5412 38.8329 28.0149 39.2366V32.2649H24.3292Z"
      fill="white" fill-opacity="0.68" />
    <path
      d="M22.6646 41.3749C22.5677 41.2576 22.4818 41.1365 22.3832 41.0173L20.9031 42.4757L16.5851 38.0241L9.00366 45.6608L11.0247 47.7451L16.5614 42.1572L20.8574 46.5847L24.3621 43.1295C23.7524 42.5905 23.1848 42.0039 22.6646 41.3749Z"
      fill="white" />
    <path
      d="M55.4938 15.2014L50.9877 16.4028L53.3157 18.8056L48.636 23.5366C49.1228 24.474 49.5164 25.4586 49.8109 26.4758L55.3367 20.888L57.5295 23.1529L58.7611 18.5765L59.9908 13.9981L55.4938 15.2014Z"
      fill="white" />
  </g>
  <defs>
    <clipPath id="clip0_1_2">
      <rect width="51" height="41" fill="white" transform="translate(9 14)" />
    </clipPath>
  </defs>
</svg>
